<?xml version="1.0" encoding="iso-8859-1"?>
<!-- Generator: Adobe Illustrator 18.0.0, SVG Export Plug-In . SVG Version: 6.00 Build 0)  -->
<!DOCTYPE svg PUBLIC "-//W3C//DTD SVG 1.1//EN" "http://www.w3.org/Graphics/SVG/1.1/DTD/svg11.dtd">
<svg version="1.1" id="Capa_1" xmlns="http://www.w3.org/2000/svg" xmlns:xlink="http://www.w3.org/1999/xlink" x="0px" y="0px"
	 viewBox="0 0 496.5 496.5" style="enable-background:new 0 0 496.5 496.5;" xml:space="preserve">
<g>
	<path d="M293.373,211.355h-32.727c-2.348,0-4.25,1.902-4.25,4.25v21.321c0,1.392,0.681,2.694,1.823,3.489l16.348,11.371
		c0.729,0.507,1.578,0.761,2.427,0.761c0.848,0,1.695-0.253,2.424-0.759l16.379-11.371c1.143-0.794,1.826-2.099,1.826-3.491v-21.321
		C297.623,213.257,295.721,211.355,293.373,211.355z M289.123,234.703l-12.127,8.419l-12.1-8.416v-14.851h24.227V234.703z"/>
	<path d="M293.373,199.604h-23.818c-2.348,0-4.25,1.902-4.25,4.25c0,2.348,1.902,4.25,4.25,4.25h23.818
		c2.348,0,4.25-1.902,4.25-4.25C297.623,201.506,295.721,199.604,293.373,199.604z"/>
	<path d="M492.25,321.554H321.065v-62.588l47.599,47.361c5.019,5.021,11.692,7.785,18.79,7.785c7.098,0,13.772-2.765,18.793-7.785
		c10.359-10.361,10.359-27.222-0.001-37.583c0,0-69.328-68.931-92.364-92.364c-6.368-6.479-14.525-11.484-24.297-11.484h-26.918
		c-2.172,0-3.994,1.637-4.226,3.796c-0.782,7.286-8.124,12.993-16.713,12.993c-8.59-0.001-15.932-5.708-16.715-12.994
		c-0.232-2.159-2.054-3.796-4.226-3.796h-26.918c-9.191,0-17.24,4.181-23.233,10.262c-0.032,0.032-0.072,0.054-0.105,0.086
		c-23.706,23.528-94.468,94.468-94.468,94.468c-5.019,5.02-7.784,11.692-7.784,18.791s2.765,13.772,7.784,18.79
		c5.019,5.021,11.693,7.785,18.792,7.785c7.099,0,13.772-2.765,18.791-7.785l48.742-48.74v63.003H4.25
		c-2.347,0-4.25,1.902-4.25,4.25V488.48c0,2.348,1.903,4.25,4.25,4.25h488c2.348,0,4.25-1.902,4.25-4.25V325.804
		C496.5,323.457,494.598,321.554,492.25,321.554z M400.235,300.318c-3.415,3.414-7.954,5.295-12.782,5.295
		c-4.827,0-9.366-1.881-12.787-5.303l-49.617-49.371l25.686-25.686l49.5,49.501C407.281,281.802,407.281,293.27,400.235,300.318z
		 M321.044,195.563l23.681,23.681l-23.66,23.66L321.044,195.563z M162.388,244.79l-24.692-24.693l24.717-24.717L162.388,244.79z
		 M107.635,301.282c-3.414,3.414-7.953,5.295-12.781,5.295c-4.828,0-9.367-1.881-12.781-5.296
		c-3.414-3.413-5.294-7.951-5.294-12.779s1.88-9.367,5.294-12.781l49.612-49.612l25.562,25.564L107.635,301.282z M170.888,308.504
		h60.383c2.347,0,4.25-1.902,4.25-4.25c0-2.348-1.903-4.25-4.25-4.25h-60.383v-103.63c0-12.671,10.309-22.979,22.981-22.979h23.456
		c2.928,9.796,12.769,16.789,24.401,16.79c11.632,0,21.473-6.992,24.401-16.789h23.456c12.672,0,22.98,10.309,22.98,22.979v125.18
		H170.888V308.504z M488,330.054v18.176h-49.75c-2.348,0-4.25,1.902-4.25,4.25c0,2.348,1.902,4.25,4.25,4.25H488v12.365H8.5v-18.484
		h68.317c2.347,0,4.25-1.902,4.25-4.25c0-2.348-1.903-4.25-4.25-4.25H8.5v-12.057H488z M8.5,484.23V377.595h22.101v94.871
		c0,2.348,1.903,4.25,4.25,4.25c2.347,0,4.25-1.902,4.25-4.25v-94.871H50v26.885c0,2.348,1.903,4.25,4.25,4.25
		c2.347,0,4.25-1.902,4.25-4.25v-26.885h15.599v36.576c0,2.348,1.903,4.25,4.25,4.25c2.347,0,4.25-1.902,4.25-4.25v-36.576H488
		v32.123h-66.168c-2.348,0-4.25,1.902-4.25,4.25c0,2.348,1.902,4.25,4.25,4.25H488v66.012H8.5z"/>
	<path d="M166.35,129.73h7.333c2.184,0,4.247-0.509,6.099-1.391c2.611,2.746,5.24,4.028,8.852,5.785
		c0.945,0.459,1.998,0.973,3.169,1.569c10.873,15.946,29.179,26.439,49.893,26.439c14.522,0,27.861-5.157,38.286-13.735h17.601
		c5.302,0,9.662-1.734,12.959-5.156c3.993-4.143,5.321-9.817,5.756-13.512h0.32c7.857,0,14.25-6.393,14.25-14.25V82.814
		c0-6.361-4.19-11.76-9.956-13.586C319.096,32.872,283.954,3.77,241,3.77c-43.095,0-78.32,29.294-79.923,65.817
		c-5.252,2.102-8.977,7.232-8.977,13.227v32.666C152.1,123.337,158.492,129.73,166.35,129.73z M295.035,82.814v3.844
		C245.545,87.633,218.05,48.401,217.776,48l-0.007,0.005c-0.594-0.871-1.505-1.529-2.618-1.767c-2.297-0.495-4.553,0.975-5.043,3.27
		c-0.058,0.272-5.775,26.122-22.589,29.954c-1.181-4.869-4.854-8.774-9.599-10.256c6.462-31.16,28.885-31.202,29.827-31.189
		c1.305,0.044,2.556-0.54,3.39-1.537c0.434-0.518,10.873-12.692,32.45-11.755c29.064,1.245,52.597,18.655,60.905,44.687
		C298.989,71.385,295.035,76.64,295.035,82.814z M241.697,153.633c-28.59,0-51.851-23.26-51.851-51.851v-14.13
		c14.851-3.601,22.629-18.694,26.146-28.288c10.512,11.94,36.592,35.818,77.05,35.818c0.167,0,0.337-0.005,0.505-0.006v6.605
		c0,15.059-6.458,28.634-16.744,38.115h-12.816v-4.064c0-11.36-9.243-20.603-20.605-20.603h-6.131c-0.001,0-0.001,0-0.002,0
		c-5.502,0-10.676,2.143-14.567,6.034c-3.891,3.892-6.034,9.065-6.034,14.568v6.337c0,2.348,1.903,4.25,4.25,4.25
		c2.347,0,4.25-1.902,4.25-4.25v-6.337c0-3.233,1.259-6.272,3.545-8.559c2.285-2.285,5.324-3.544,8.557-3.544h0.002h6.131
		c6.675,0,12.105,5.43,12.105,12.103v4.064h-3.569c-0.94,0-1.8,0.314-2.504,0.831c0.526-0.708,0.849-1.575,0.849-2.525
		c0-2.348-1.902-4.25-4.249-4.25H234.62c-2.347,0-4.25,1.902-4.25,4.25c0,2.348,1.903,4.25,4.25,4.25h11.392
		c0.939,0,1.8-0.314,2.503-0.831c-0.526,0.708-0.849,1.576-0.849,2.525c0,2.348,1.903,4.25,4.25,4.25h12.462
		C257.523,151.748,249.827,153.633,241.697,153.633z M297.583,139.898h-9.137c1.126-1.379,2.195-2.807,3.198-4.282
		c3.884-2.113,7.919-5.074,10.871-7.601c1.586,0.86,3.353,1.425,5.227,1.628c-0.365,2.385-1.239,5.539-3.321,7.7
		C302.765,139.062,300.528,139.898,297.583,139.898z M322.368,115.48c0,3.171-2.579,5.75-5.75,5.75h-7.333
		c-3.171,0-5.75-2.579-5.75-5.75V82.814c0-3.171,2.579-5.75,5.75-5.75h7.333c3.171,0,5.75,2.579,5.75,5.75V115.48z M241,12.27
		c36.471,0,66.631,23.006,70.949,52.604c-9.926-28.398-36.002-47.271-67.999-48.642c-21.594-0.936-34.107,9.475-38.037,13.399
		c-6.899,0.671-29.051,5.301-36.068,36.697C173.368,36.032,203.932,12.27,241,12.27z M160.6,82.814c0-3.171,2.58-5.75,5.75-5.75
		h7.333c3.17,0,5.75,2.579,5.75,5.75v32.666c0,3.171-2.58,5.75-5.75,5.75h-7.333c-3.17,0-5.75-2.579-5.75-5.75V82.814z"/>
	<path d="M279.25,300.004h-26c-2.348,0-4.25,1.902-4.25,4.25c0,2.348,1.902,4.25,4.25,4.25h26c2.348,0,4.25-1.902,4.25-4.25
		C283.5,301.907,281.598,300.004,279.25,300.004z"/>
</g>
<g>
</g>
<g>
</g>
<g>
</g>
<g>
</g>
<g>
</g>
<g>
</g>
<g>
</g>
<g>
</g>
<g>
</g>
<g>
</g>
<g>
</g>
<g>
</g>
<g>
</g>
<g>
</g>
<g>
</g>
</svg>
